<?xml version="1.0" ?><svg viewBox="0 0 60 60" xmlns="http://www.w3.org/2000/svg"><defs><style>.a{fill:none;stroke:#1c4db8;stroke-linecap:round;stroke-linejoin:round;stroke-width:1.5px;}.b{fill:#e82e5f;}</style></defs><title/><line class="a" x1="47.538" x2="47.538" y1="35.53" y2="42.308"/><line class="a" x1="12.641" x2="12.641" y1="42.666" y2="35.53"/><path class="a" d="M20.167,24.5c-5.133-.081-5.5,1.333-7.526,11.03-.325,1.556,1.288,2.877,2.877,2.877H44.661a2.878,2.878,0,0,0,2.877-2.877c-1.346-5.419-1.626-6.6-2.038-8.2"/><path class="a" d="M36.241,29.777h3.01a1.8,1.8,0,0,1,1.8,1.8h0a1.8,1.8,0,0,1-1.8,1.8H20.912a1.8,1.8,0,0,1-1.8-1.8h0a1.8,1.8,0,0,1,1.8-1.8h4.817"/><path class="b" d="M38.949,12.648,50.505,13.7a1.918,1.918,0,0,0-.214-.33L41.716,2.686a1.991,1.991,0,0,0-.605-.5Z"/><path class="b" d="M36.379,17.677,39.614,2.014a1.974,1.974,0,0,0-.709.365L20.993,16.763a1.99,1.99,0,0,0-.514.622Z"/><path class="b" d="M38.644,14.126l-.922,4.464a.749.749,0,0,1-.734.6h-.014l-4.465-.082L30.988,30.994a1.99,1.99,0,0,0,1.084-.434L49.984,16.177a1.993,1.993,0,0,0,.657-.964Z"/><path class="b" d="M31,19.079l-10.674-.2a2.006,2.006,0,0,0,.359.693L29.26,30.253a2.068,2.068,0,0,0,.274.279Z"/><path class="a" d="M51.927,36.994l-2.591,8.37-4.049,2.3a2.144,2.144,0,0,0,1.989,3.8L51.1,49.613"/><path class="a" d="M47.276,51.457l-4.727,2.317-6.843.022a1.6,1.6,0,0,0-.457,3.136l3,.9A15.253,15.253,0,0,0,57.381,47.176l.044-.164"/><path class="a" d="M8.236,36.994l2.592,8.37,4.049,2.3a2.144,2.144,0,0,1-1.99,3.8L9.063,49.613"/><path class="a" d="M12.887,51.457l4.728,2.317,4.152.022a1.6,1.6,0,0,1,1.46,2.251c-1.781,4.024-9.614,1.968-10.65,1.614A15.256,15.256,0,0,1,2.783,47.176L2.575,46.4"/><line class="a" x1="23.208" x2="34.265" y1="54.709" y2="54.709"/></svg>